<?xml version="1.0" encoding="UTF-8"?>
<!--Generator: Apple Native CoreSVG 175-->
<!DOCTYPE svg
PUBLIC "-//W3C//DTD SVG 1.1//EN"
       "http://www.w3.org/Graphics/SVG/1.1/DTD/svg11.dtd">
<svg version="1.1" xmlns="http://www.w3.org/2000/svg" xmlns:xlink="http://www.w3.org/1999/xlink" width="3300" height="2200">
 <!--glyph: "uni10094F.medium", point size: 100.0, font version: "17.3d3e1", template writer version: "65.1"-->
 <g id="Notes">
  <rect height="2200" id="artboard" style="fill:white;opacity:1" width="3300" x="0" y="0"/>
  <line style="fill:none;stroke:black;opacity:1;stroke-width:0.5;" x1="263" x2="3036" y1="292" y2="292"/>
  <text style="stroke:none;fill:black;font-family:sans-serif;font-size:13;font-weight:bold;" transform="matrix(1 0 0 1 263 322)">Weight/Scale Variations</text>
  <text style="stroke:none;fill:black;font-family:sans-serif;font-size:13;text-anchor:middle;" transform="matrix(1 0 0 1 559.711 322)">Ultralight</text>
  <text style="stroke:none;fill:black;font-family:sans-serif;font-size:13;text-anchor:middle;" transform="matrix(1 0 0 1 856.422 322)">Thin</text>
  <text style="stroke:none;fill:black;font-family:sans-serif;font-size:13;text-anchor:middle;" transform="matrix(1 0 0 1 1153.13 322)">Light</text>
  <text style="stroke:none;fill:black;font-family:sans-serif;font-size:13;text-anchor:middle;" transform="matrix(1 0 0 1 1449.84 322)">Regular</text>
  <text style="stroke:none;fill:black;font-family:sans-serif;font-size:13;text-anchor:middle;" transform="matrix(1 0 0 1 1746.56 322)">Medium</text>
  <text style="stroke:none;fill:black;font-family:sans-serif;font-size:13;text-anchor:middle;" transform="matrix(1 0 0 1 2043.27 322)">Semibold</text>
  <text style="stroke:none;fill:black;font-family:sans-serif;font-size:13;text-anchor:middle;" transform="matrix(1 0 0 1 2339.98 322)">Bold</text>
  <text style="stroke:none;fill:black;font-family:sans-serif;font-size:13;text-anchor:middle;" transform="matrix(1 0 0 1 2636.69 322)">Heavy</text>
  <text style="stroke:none;fill:black;font-family:sans-serif;font-size:13;text-anchor:middle;" transform="matrix(1 0 0 1 2933.4 322)">Black</text>
  <line style="fill:none;stroke:black;opacity:1;stroke-width:0.5;" x1="263" x2="3036" y1="1903" y2="1903"/>
  <g transform="matrix(1 0 0 1 263 1933)">
   <path d="M9.24805 0.830078Q10.8691 0.830078 12.2949 0.214844Q13.7207-0.400391 14.8096-1.49414Q15.8984-2.58789 16.5186-4.01367Q17.1387-5.43945 17.1387-7.05078Q17.1387-8.66211 16.5186-10.0879Q15.8984-11.5137 14.8047-12.6074Q13.7109-13.7012 12.2852-14.3164Q10.8594-14.9316 9.23828-14.9316Q7.62695-14.9316 6.20117-14.3164Q4.77539-13.7012 3.69141-12.6074Q2.60742-11.5137 1.9873-10.0879Q1.36719-8.66211 1.36719-7.05078Q1.36719-5.43945 1.9873-4.01367Q2.60742-2.58789 3.69629-1.49414Q4.78516-0.400391 6.21094 0.214844Q7.63672 0.830078 9.24805 0.830078ZM9.24805-0.654297Q7.91992-0.654297 6.7627-1.14746Q5.60547-1.64062 4.73145-2.51953Q3.85742-3.39844 3.36426-4.56055Q2.87109-5.72266 2.87109-7.05078Q2.87109-8.37891 3.35938-9.54102Q3.84766-10.7031 4.72168-11.582Q5.5957-12.4609 6.75293-12.9541Q7.91016-13.4473 9.23828-13.4473Q10.5762-13.4473 11.7334-12.9541Q12.8906-12.4609 13.7695-11.582Q14.6484-10.7031 15.1465-9.54102Q15.6445-8.37891 15.6445-7.05078Q15.6445-5.72266 15.1514-4.56055Q14.6582-3.39844 13.7842-2.51953Q12.9102-1.64062 11.748-1.14746Q10.5859-0.654297 9.24805-0.654297ZM5.6543-7.05078Q5.6543-6.72852 5.85938-6.52832Q6.06445-6.32812 6.40625-6.32812L8.51562-6.32812L8.51562-4.20898Q8.51562-3.88672 8.71094-3.67676Q8.90625-3.4668 9.23828-3.4668Q9.56055-3.4668 9.77051-3.67676Q9.98047-3.88672 9.98047-4.20898L9.98047-6.32812L12.0898-6.32812Q12.4219-6.32812 12.627-6.52832Q12.832-6.72852 12.832-7.05078Q12.832-7.38281 12.627-7.58789Q12.4219-7.79297 12.0898-7.79297L9.98047-7.79297L9.98047-9.90234Q9.98047-10.2344 9.77051-10.4443Q9.56055-10.6543 9.23828-10.6543Q8.90625-10.6543 8.71094-10.4443Q8.51562-10.2344 8.51562-9.90234L8.51562-7.79297L6.40625-7.79297Q6.06445-7.79297 5.85938-7.58789Q5.6543-7.38281 5.6543-7.05078Z"/>
  </g>
  <g transform="matrix(1 0 0 1 281.867 1933)">
   <path d="M11.709 2.91016Q13.75 2.91016 15.5518 2.12891Q17.3535 1.34766 18.7305-0.0292969Q20.1074-1.40625 20.8887-3.20801Q21.6699-5.00977 21.6699-7.05078Q21.6699-9.0918 20.8887-10.8936Q20.1074-12.6953 18.7305-14.0723Q17.3535-15.4492 15.5469-16.2305Q13.7402-17.0117 11.6992-17.0117Q9.6582-17.0117 7.85645-16.2305Q6.05469-15.4492 4.68262-14.0723Q3.31055-12.6953 2.5293-10.8936Q1.74805-9.0918 1.74805-7.05078Q1.74805-5.00977 2.5293-3.20801Q3.31055-1.40625 4.6875-0.0292969Q6.06445 1.34766 7.86621 2.12891Q9.66797 2.91016 11.709 2.91016ZM11.709 1.25Q9.98047 1.25 8.47656 0.605469Q6.97266-0.0390625 5.83496-1.17676Q4.69727-2.31445 4.05762-3.81836Q3.41797-5.32227 3.41797-7.05078Q3.41797-8.7793 4.05762-10.2832Q4.69727-11.7871 5.83008-12.9297Q6.96289-14.0723 8.4668-14.7119Q9.9707-15.3516 11.6992-15.3516Q13.4277-15.3516 14.9316-14.7119Q16.4355-14.0723 17.5781-12.9297Q18.7207-11.7871 19.3652-10.2832Q20.0098-8.7793 20.0098-7.05078Q20.0098-5.32227 19.3701-3.81836Q18.7305-2.31445 17.5928-1.17676Q16.4551-0.0390625 14.9463 0.605469Q13.4375 1.25 11.709 1.25ZM7.17773-7.05078Q7.17773-6.69922 7.41211-6.47461Q7.64648-6.25 8.01758-6.25L10.8887-6.25L10.8887-3.36914Q10.8887-2.99805 11.1133-2.76855Q11.3379-2.53906 11.6895-2.53906Q12.0605-2.53906 12.29-2.76855Q12.5195-2.99805 12.5195-3.36914L12.5195-6.25L15.4004-6.25Q15.7715-6.25 16.001-6.47461Q16.2305-6.69922 16.2305-7.05078Q16.2305-7.42188 16.001-7.65137Q15.7715-7.88086 15.4004-7.88086L12.5195-7.88086L12.5195-10.752Q12.5195-11.1328 12.29-11.3623Q12.0605-11.5918 11.6895-11.5918Q11.3379-11.5918 11.1133-11.3574Q10.8887-11.123 10.8887-10.752L10.8887-7.88086L8.01758-7.88086Q7.63672-7.88086 7.40723-7.65137Q7.17773-7.42188 7.17773-7.05078Z"/>
  </g>
  <g transform="matrix(1 0 0 1 305.646 1933)">
   <path d="M14.9707 5.66406Q17.0605 5.66406 18.96 5.01465Q20.8594 4.36523 22.4512 3.19336Q24.043 2.02148 25.2197 0.429688Q26.3965-1.16211 27.0459-3.06641Q27.6953-4.9707 27.6953-7.05078Q27.6953-9.14062 27.0459-11.04Q26.3965-12.9395 25.2197-14.5312Q24.043-16.123 22.4512-17.2998Q20.8594-18.4766 18.9551-19.126Q17.0508-19.7754 14.9609-19.7754Q12.8711-19.7754 10.9717-19.126Q9.07227-18.4766 7.48535-17.2998Q5.89844-16.123 4.72168-14.5312Q3.54492-12.9395 2.90039-11.04Q2.25586-9.14062 2.25586-7.05078Q2.25586-4.9707 2.90527-3.06641Q3.55469-1.16211 4.72656 0.429688Q5.89844 2.02148 7.49023 3.19336Q9.08203 4.36523 10.9814 5.01465Q12.8809 5.66406 14.9707 5.66406ZM14.9707 3.84766Q13.1641 3.84766 11.5283 3.2959Q9.89258 2.74414 8.53516 1.74805Q7.17773 0.751953 6.17676-0.610352Q5.17578-1.97266 4.62891-3.6084Q4.08203-5.24414 4.08203-7.05078Q4.08203-8.86719 4.62891-10.5029Q5.17578-12.1387 6.17188-13.501Q7.16797-14.8633 8.52539-15.8594Q9.88281-16.8555 11.5186-17.4023Q13.1543-17.9492 14.9609-17.9492Q16.7773-17.9492 18.4131-17.4023Q20.0488-16.8555 21.4111-15.8594Q22.7734-14.8633 23.7695-13.501Q24.7656-12.1387 25.3174-10.5029Q25.8691-8.86719 25.8691-7.05078Q25.8789-5.24414 25.332-3.6084Q24.7852-1.97266 23.7842-0.610352Q22.7832 0.751953 21.4209 1.74805Q20.0586 2.74414 18.4229 3.2959Q16.7871 3.84766 14.9707 3.84766ZM9.19922-7.05078Q9.19922-6.66992 9.45801-6.4209Q9.7168-6.17188 10.1172-6.17188L14.0625-6.17188L14.0625-2.2168Q14.0625-1.81641 14.3115-1.55762Q14.5605-1.29883 14.9512-1.29883Q15.3516-1.29883 15.6104-1.55273Q15.8691-1.80664 15.8691-2.2168L15.8691-6.17188L19.8242-6.17188Q20.2246-6.17188 20.4785-6.4209Q20.7324-6.66992 20.7324-7.05078Q20.7324-7.46094 20.4785-7.71484Q20.2246-7.96875 19.8242-7.96875L15.8691-7.96875L15.8691-11.9141Q15.8691-12.3242 15.6104-12.583Q15.3516-12.8418 14.9512-12.8418Q14.5605-12.8418 14.3115-12.583Q14.0625-12.3242 14.0625-11.9141L14.0625-7.96875L10.1172-7.96875Q9.70703-7.96875 9.45312-7.71484Q9.19922-7.46094 9.19922-7.05078Z"/>
  </g>
  <text style="stroke:none;fill:black;font-family:sans-serif;font-size:13;font-weight:bold;" transform="matrix(1 0 0 1 263 1953)">Design Variations</text>
  <text style="stroke:none;fill:black;font-family:sans-serif;font-size:13;" transform="matrix(1 0 0 1 263 1971)">Symbols are supported in up to nine weights and three scales.</text>
  <text style="stroke:none;fill:black;font-family:sans-serif;font-size:13;" transform="matrix(1 0 0 1 263 1989)">For optimal layout with text and other symbols, vertically align</text>
  <text style="stroke:none;fill:black;font-family:sans-serif;font-size:13;" transform="matrix(1 0 0 1 263 2007)">symbols with the adjacent text.</text>
  <line style="fill:none;stroke:#00AEEF;stroke-width:0.5;opacity:1.0;" x1="776" x2="776" y1="1919" y2="1933"/>
  <g transform="matrix(1 0 0 1 776 1933)">
   <path d="M3.31055 0.15625Q3.70117 0.15625 3.91602-0.00976562Q4.13086-0.175781 4.26758-0.585938L5.52734-4.0332L11.2891-4.0332L12.5488-0.585938Q12.6855-0.175781 12.9004-0.00976562Q13.1152 0.15625 13.4961 0.15625Q13.8867 0.15625 14.1162-0.0585938Q14.3457-0.273438 14.3457-0.644531Q14.3457-0.869141 14.2383-1.17188L9.6582-13.3691Q9.48242-13.8184 9.17969-14.043Q8.87695-14.2676 8.4082-14.2676Q7.5-14.2676 7.17773-13.3789L2.59766-1.16211Q2.49023-0.859375 2.49023-0.634766Q2.49023-0.263672 2.70996-0.0537109Q2.92969 0.15625 3.31055 0.15625ZM6.00586-5.51758L8.37891-12.0898L8.42773-12.0898L10.8008-5.51758Z"/>
  </g>
  <line style="fill:none;stroke:#00AEEF;stroke-width:0.5;opacity:1.0;" x1="793.197" x2="793.197" y1="1919" y2="1933"/>
  <text style="stroke:none;fill:black;font-family:sans-serif;font-size:13;font-weight:bold;" transform="matrix(1 0 0 1 776 1953)">Margins</text>
  <text style="stroke:none;fill:black;font-family:sans-serif;font-size:13;" transform="matrix(1 0 0 1 776 1971)">Leading and trailing margins on the left and right side of each symbol</text>
  <text style="stroke:none;fill:black;font-family:sans-serif;font-size:13;" transform="matrix(1 0 0 1 776 1989)">can be adjusted by modifying the x-location of the margin guidelines.</text>
  <text style="stroke:none;fill:black;font-family:sans-serif;font-size:13;" transform="matrix(1 0 0 1 776 2007)">Modifications are automatically applied proportionally to all</text>
  <text style="stroke:none;fill:black;font-family:sans-serif;font-size:13;" transform="matrix(1 0 0 1 776 2025)">scales and weights.</text>
  <g transform="matrix(1 0 0 1 1289 1933)">
   <path d="M2.8418 1.86523L4.54102 3.57422Q5.18555 4.22852 5.90332 4.17969Q6.62109 4.13086 7.31445 3.35938L18.0078-8.42773L17.041-9.4043L6.42578 2.27539Q6.16211 2.57812 5.89355 2.61719Q5.625 2.65625 5.27344 2.30469L4.10156 1.14258Q3.75 0.791016 3.79395 0.522461Q3.83789 0.253906 4.14062-0.0195312L15.6152-10.8203L14.6387-11.7871L3.04688-0.898438Q2.30469-0.214844 2.25098 0.498047Q2.19727 1.21094 2.8418 1.86523ZM9.25781-16.3281Q8.94531-16.0254 8.90625-15.6348Q8.86719-15.2441 9.04297-14.9512Q9.21875-14.6777 9.55566-14.541Q9.89258-14.4043 10.3809-14.5215Q11.4746-14.7754 12.5977-14.7314Q13.7207-14.6875 14.7949-13.9844L14.209-12.5293Q13.9551-11.9043 14.0674-11.4404Q14.1797-10.9766 14.5801-10.5664L16.875-8.25195Q17.2363-7.88086 17.5781-7.82227Q17.9199-7.76367 18.3398-7.8418L19.4043-8.03711L20.0684-7.36328L20.0293-6.80664Q20-6.43555 20.1221-6.12305Q20.2441-5.81055 20.6055-5.44922L21.3672-4.70703Q21.7285-4.3457 22.1533-4.33105Q22.5781-4.31641 22.9297-4.66797L25.8398-7.58789Q26.1914-7.93945 26.1816-8.35449Q26.1719-8.76953 25.8105-9.13086L25.0391-9.89258Q24.6875-10.2539 24.3799-10.3857Q24.0723-10.5176 23.7109-10.4883L23.1348-10.4395L22.4902-11.0742L22.7344-12.1973Q22.832-12.6172 22.6953-12.9834Q22.5586-13.3496 22.1191-13.7891L19.9219-15.9766Q18.6719-17.2168 17.2607-17.8369Q15.8496-18.457 14.4189-18.4814Q12.9883-18.5059 11.665-17.959Q10.3418-17.4121 9.25781-16.3281ZM10.752-15.957Q11.6602-16.6211 12.7002-16.9043Q13.7402-17.1875 14.8047-17.085Q15.8691-16.9824 16.8701-16.5137Q17.8711-16.0449 18.7012-15.2051L21.1328-12.793Q21.3086-12.6172 21.3525-12.4512Q21.3965-12.2852 21.3379-12.0312L21.0156-10.5469L22.5195-9.0625L23.5059-9.12109Q23.6914-9.13086 23.7891-9.09668Q23.8867-9.0625 24.0332-8.91602L24.6094-8.33984L22.168-5.89844L21.5918-6.47461Q21.4453-6.62109 21.4062-6.71875Q21.3672-6.81641 21.377-7.01172L21.4453-7.98828L19.9512-9.47266L18.4277-9.21875Q18.1836-9.16992 18.042-9.2041Q17.9004-9.23828 17.7148-9.41406L15.7129-11.416Q15.5176-11.5918 15.4932-11.7529Q15.4688-11.9141 15.5859-12.1875L16.4648-14.2773Q15.293-15.3711 13.8281-15.791Q12.3633-16.2109 10.8398-15.7617Q10.7227-15.7324 10.6885-15.8057Q10.6543-15.8789 10.752-15.957Z"/>
  </g>
  <text style="stroke:none;fill:black;font-family:sans-serif;font-size:13;font-weight:bold;" transform="matrix(1 0 0 1 1289 1953)">Exporting</text>
  <text style="stroke:none;fill:black;font-family:sans-serif;font-size:13;" transform="matrix(1 0 0 1 1289 1971)">Symbols should be outlined when exporting to ensure the</text>
  <text style="stroke:none;fill:black;font-family:sans-serif;font-size:13;" transform="matrix(1 0 0 1 1289 1989)">design is preserved when submitting to Xcode.</text>
  <text id="template-version" style="stroke:none;fill:black;font-family:sans-serif;font-size:13;text-anchor:end;" transform="matrix(1 0 0 1 3036 1933)">Template v.3.0</text>
  <text style="stroke:none;fill:black;font-family:sans-serif;font-size:13;text-anchor:end;" transform="matrix(1 0 0 1 3036 1951)">Requires Xcode 13 or greater</text>
  <text id="descriptive-name" style="stroke:none;fill:black;font-family:sans-serif;font-size:13;text-anchor:end;" transform="matrix(1 0 0 1 3036 1969)">Generated from gearshape.2.fill</text>
  <text style="stroke:none;fill:black;font-family:sans-serif;font-size:13;text-anchor:end;" transform="matrix(1 0 0 1 3036 1987)">Typeset at 100 points</text>
  <text style="stroke:none;fill:black;font-family:sans-serif;font-size:13;" transform="matrix(1 0 0 1 263 726)">Small</text>
  <text style="stroke:none;fill:black;font-family:sans-serif;font-size:13;" transform="matrix(1 0 0 1 263 1156)">Medium</text>
  <text style="stroke:none;fill:black;font-family:sans-serif;font-size:13;" transform="matrix(1 0 0 1 263 1586)">Large</text>
 </g>
 <g id="Guides">
  <g id="H-reference" style="fill:#27AAE1;stroke:none;" transform="matrix(1 0 0 1 339 696)">
   <path d="M0.993347 0L3.6377 0L29.3282-67.1326L30.0301-67.1326L30.0301-70.459L28.1227-70.459ZM11.6882-24.4797L46.9818-24.4797L46.2311-26.7288L12.4382-26.7288ZM55.1193 0L57.7637 0L30.6381-70.459L29.4327-70.459L29.4327-67.1326Z"/>
  </g>
  <line id="Baseline-S" style="fill:none;stroke:#27AAE1;opacity:1;stroke-width:0.5;" x1="263" x2="3036" y1="696" y2="696"/>
  <line id="Capline-S" style="fill:none;stroke:#27AAE1;opacity:1;stroke-width:0.5;" x1="263" x2="3036" y1="625.541" y2="625.541"/>
  <g id="H-reference" style="fill:#27AAE1;stroke:none;" transform="matrix(1 0 0 1 339 1126)">
   <path d="M0.993347 0L3.6377 0L29.3282-67.1326L30.0301-67.1326L30.0301-70.459L28.1227-70.459ZM11.6882-24.4797L46.9818-24.4797L46.2311-26.7288L12.4382-26.7288ZM55.1193 0L57.7637 0L30.6381-70.459L29.4327-70.459L29.4327-67.1326Z"/>
  </g>
  <line id="Baseline-M" style="fill:none;stroke:#27AAE1;opacity:1;stroke-width:0.5;" x1="263" x2="3036" y1="1126" y2="1126"/>
  <line id="Capline-M" style="fill:none;stroke:#27AAE1;opacity:1;stroke-width:0.5;" x1="263" x2="3036" y1="1055.54" y2="1055.54"/>
  <g id="H-reference" style="fill:#27AAE1;stroke:none;" transform="matrix(1 0 0 1 339 1556)">
   <path d="M0.993347 0L3.6377 0L29.3282-67.1326L30.0301-67.1326L30.0301-70.459L28.1227-70.459ZM11.6882-24.4797L46.9818-24.4797L46.2311-26.7288L12.4382-26.7288ZM55.1193 0L57.7637 0L30.6381-70.459L29.4327-70.459L29.4327-67.1326Z"/>
  </g>
  <line id="Baseline-L" style="fill:none;stroke:#27AAE1;opacity:1;stroke-width:0.5;" x1="263" x2="3036" y1="1556" y2="1556"/>
  <line id="Capline-L" style="fill:none;stroke:#27AAE1;opacity:1;stroke-width:0.5;" x1="263" x2="3036" y1="1485.54" y2="1485.54"/>
  <line id="left-margin-Ultralight-S" style="fill:none;stroke:#00AEEF;stroke-width:0.5;opacity:1.0;" x1="503.265" x2="503.265" y1="600.785" y2="720.121"/>
  <line id="right-margin-Ultralight-S" style="fill:none;stroke:#00AEEF;stroke-width:0.5;opacity:1.0;" x1="616.157" x2="616.157" y1="600.785" y2="720.121"/>
  <line id="left-margin-Regular-S" style="fill:none;stroke:#00AEEF;stroke-width:0.5;opacity:1.0;" x1="1389.49" x2="1389.49" y1="600.785" y2="720.121"/>
  <line id="right-margin-Regular-S" style="fill:none;stroke:#00AEEF;stroke-width:0.5;opacity:1.0;" x1="1510.2" x2="1510.2" y1="600.785" y2="720.121"/>
  <line id="left-margin-Black-S" style="fill:none;stroke:#00AEEF;stroke-width:0.5;opacity:1.0;" x1="2870.41" x2="2870.41" y1="600.785" y2="720.121"/>
  <line id="right-margin-Black-S" style="fill:none;stroke:#00AEEF;stroke-width:0.5;opacity:1.0;" x1="2996.39" x2="2996.39" y1="600.785" y2="720.121"/>
 </g>
 <g id="Symbols">
  <g id="Black-S" transform="matrix(1 0 0 1 2870.41 696)">
   <path d="M36.377-15.9668L41.5527-15.9668Q44.9707-15.9668 45.8496-19.3848L47.2656-25.1465Q47.8027-25.3906 48.3643-25.6104Q48.9258-25.8301 49.4141-26.0254L54.4434-22.9492Q55.8105-22.1191 57.3242-22.29Q58.8379-22.4609 59.9121-23.5352L63.5742-27.1973Q64.6973-28.3203 64.8193-29.8828Q64.9414-31.4453 64.1113-32.7637L61.0352-37.7441Q61.2793-38.2812 61.499-38.7695Q61.7188-39.2578 61.8652-39.7461L67.6758-41.1621Q71.0938-41.9434 71.0938-45.459L71.0938-50.5371Q71.0938-53.9551 67.6758-54.834L61.9629-56.25Q61.7676-56.7871 61.5723-57.2998Q61.377-57.8125 61.1328-58.3008L64.1602-63.4766Q65.9668-66.6504 63.623-68.9453L59.9121-72.5586Q58.7891-73.6816 57.2998-73.8525Q55.8105-74.0234 54.541-73.1934L49.4141-70.0195Q48.9258-70.2637 48.3887-70.4834Q47.8516-70.7031 47.2656-70.8984L45.8496-76.8066Q45.5078-78.3691 44.3115-79.2969Q43.1152-80.2246 41.5527-80.2246L36.377-80.2246Q32.959-80.2246 32.0801-76.8066L30.6641-70.9961Q30.127-70.8008 29.5654-70.5566Q29.0039-70.3125 28.4668-70.0684L23.3887-73.2422Q22.1191-74.0723 20.6299-73.877Q19.1406-73.6816 18.0176-72.5586L14.3066-68.9453Q11.9629-66.6504 13.7695-63.4766L16.7969-58.3008Q16.6016-57.8125 16.3818-57.2998Q16.1621-56.7871 15.9668-56.25L10.2539-54.834Q6.83594-53.9551 6.83594-50.5371L6.83594-45.459Q6.83594-41.9434 10.2539-41.1621L16.0645-39.7461Q16.2109-39.2578 16.4307-38.7695Q16.6504-38.2812 16.8945-37.7441L13.8184-32.7637Q13.0371-31.4453 13.1348-29.8828Q13.2324-28.3203 14.3555-27.1973L18.0176-23.5352Q19.1406-22.4609 20.6299-22.29Q22.1191-22.1191 23.4863-22.9492L28.5156-26.0254Q29.0527-25.8301 29.5898-25.6104Q30.127-25.3906 30.6641-25.1465L32.0801-19.3848Q32.959-15.9668 36.377-15.9668ZM38.9648-40.2832Q35.791-40.2832 33.4717-42.6025Q31.1523-44.9219 31.1523-48.1445Q31.1523-51.3184 33.4717-53.6133Q35.791-55.9082 38.9648-55.9082Q42.1387-55.9082 44.458-53.6133Q46.7773-51.3184 46.7773-48.1445Q46.7773-44.9219 44.458-42.6025Q42.1387-40.2832 38.9648-40.2832ZM88.9648 9.57031L93.4082 9.57031Q96.6309 9.57031 97.3633 6.44531L98.5352 1.5625Q98.9746 1.36719 99.3896 1.19629Q99.8047 1.02539 100.244 0.830078L104.492 3.51562Q105.713 4.29688 107.08 4.12598Q108.447 3.95508 109.424 2.97852L112.549-0.195312Q114.795-2.44141 113.086-5.22461L110.498-9.47266Q110.693-9.86328 110.84-10.2539Q110.986-10.6445 111.133-11.0352L116.064-12.207Q119.141-12.9395 119.141-16.1133L119.141-20.5078Q119.141-23.6328 116.064-24.4141L111.182-25.6348Q110.84-26.6602 110.547-27.2461L113.135-31.5918Q114.795-34.4727 112.646-36.5723L109.375-39.6973Q107.08-41.8457 104.541-40.2344L100.195-37.5488Q99.8535-37.7441 99.4141-37.915Q98.9746-38.0859 98.5352-38.2324L97.3633-43.2617Q96.6309-46.3867 93.4082-46.3867L88.9648-46.3867Q85.8398-46.3867 85.0586-43.2617L83.8379-38.3301Q83.3984-38.1348 82.9834-37.9883Q82.5684-37.8418 82.1289-37.6465L77.832-40.2832Q76.6602-40.9668 75.293-40.8203Q73.9258-40.6738 72.9492-39.6973L69.7754-36.5723Q67.627-34.4727 69.2871-31.5918L71.8262-27.1973Q71.6797-26.8555 71.5332-26.4648Q71.3867-26.0742 71.1914-25.6348L66.3574-24.4141Q63.2324-23.6328 63.2324-20.5078L63.2324-16.1133Q63.2324-12.9395 66.3574-12.207L71.2891-11.0352Q71.4355-10.6445 71.582-10.2539Q71.7285-9.86328 71.9238-9.47266L69.3359-5.22461Q68.5547-4.10156 68.6523-2.66113Q68.75-1.2207 69.7754-0.195312L72.9492 2.97852Q73.9258 3.95508 75.3174 4.12598Q76.709 4.29688 77.9297 3.51562L82.1777 0.878906Q82.5684 1.07422 83.0078 1.2207Q83.4473 1.36719 83.8379 1.5625L85.0586 6.44531Q85.8398 9.57031 88.9648 9.57031ZM91.2109-12.2559Q88.6719-12.2559 86.8652-14.0869Q85.0586-15.918 85.0586-18.457Q85.0586-20.9961 86.8652-22.7783Q88.6719-24.5605 91.2109-24.5605Q93.75-24.5605 95.5566-22.7783Q97.3633-20.9961 97.3633-18.457Q97.3633-15.918 95.5811-14.0869Q93.7988-12.2559 91.2109-12.2559Z"/>
  </g>
  <g id="Regular-S" transform="matrix(1 0 0 1 1389.49 696)">
   <path d="M34.7656-16.5039L39.9902-16.5039Q42.334-16.5039 42.8711-18.7988L44.4824-25.293Q45.3613-25.6348 46.2158-25.9766Q47.0703-26.3184 47.8027-26.709L53.5156-23.1934Q54.3945-22.6562 55.4199-22.7295Q56.4453-22.8027 57.2266-23.584L60.8398-27.2461Q61.5723-28.0273 61.6943-29.0771Q61.8164-30.127 61.2305-31.0547L57.7637-36.6699Q58.1543-37.4512 58.4961-38.2568Q58.8379-39.0625 59.082-39.8926L65.625-41.5039Q67.9199-42.041 67.9199-44.3848L67.9199-49.5117Q67.9199-51.8555 65.625-52.3926L59.1797-54.0039Q58.8379-54.9805 58.4961-55.7861Q58.1543-56.5918 57.8613-57.2754L61.2305-63.0371Q62.5-65.2344 60.9375-66.748L57.2266-70.3613Q56.4453-71.0938 55.4688-71.2646Q54.4922-71.4355 53.6133-70.8496L47.8027-67.2852Q47.0703-67.6758 46.2402-68.0176Q45.4102-68.3594 44.4824-68.6523L42.8711-75.293Q42.627-76.3184 41.8701-76.9531Q41.1133-77.5879 39.9902-77.5879L34.7656-77.5879Q32.4707-77.5879 31.8848-75.293L30.2734-68.75Q29.3945-68.4082 28.54-68.0664Q27.6855-67.7246 26.9043-67.334L21.1426-70.8496Q20.2637-71.4355 19.2871-71.2646Q18.3105-71.0938 17.5293-70.3613L13.8184-66.748Q12.2559-65.2344 13.5254-63.0371L16.9434-57.2754Q16.6016-56.5918 16.2598-55.7861Q15.918-54.9805 15.5762-54.0039L9.13086-52.3926Q6.83594-51.8555 6.83594-49.5117L6.83594-44.3848Q6.83594-42.041 9.13086-41.5039L15.6738-39.8926Q15.918-39.0625 16.2598-38.2568Q16.6016-37.4512 16.9922-36.6699L13.5254-31.0547Q12.9395-30.127 13.0615-29.0771Q13.1836-28.0273 13.916-27.2461L17.5293-23.584Q18.3105-22.8027 19.3359-22.7295Q20.3613-22.6562 21.2402-23.1934L26.9531-26.709Q27.7344-26.3184 28.5645-25.9766Q29.3945-25.6348 30.2734-25.293L31.8848-18.7988Q32.4707-16.5039 34.7656-16.5039ZM37.4023-37.6953Q33.5449-37.6953 30.7861-40.4785Q28.0273-43.2617 28.0273-47.0703Q28.0273-50.9277 30.7861-53.6621Q33.5449-56.3965 37.4023-56.3965Q41.2109-56.3965 43.9697-53.6621Q46.7285-50.9277 46.7285-47.0703Q46.7285-43.2617 43.9697-40.4785Q41.2109-37.6953 37.4023-37.6953ZM85.3027 7.17773L89.6973 7.17773Q91.7969 7.17773 92.2852 5.17578L93.6035-0.439453Q94.3848-0.732422 95.1172-1.02539Q95.8496-1.31836 96.5332-1.70898L101.465 1.36719Q102.246 1.85547 103.101 1.78223Q103.955 1.70898 104.639 1.07422L107.715-2.09961Q109.229-3.61328 108.105-5.37109L105.078-10.2539Q105.42-10.9375 105.713-11.6455Q106.006-12.3535 106.201-13.0371L111.865-14.4043Q113.867-14.8438 113.867-16.8945L113.867-21.2891Q113.867-23.3398 111.865-23.8281L106.25-25.1953Q105.762-26.9043 105.127-28.0273L108.105-33.0078Q109.229-34.8633 107.812-36.1816L104.639-39.3066Q103.076-40.6738 101.514-39.6973L96.5332-36.6211Q95.8984-36.9141 95.1416-37.2559Q94.3848-37.5977 93.6035-37.793L92.2852-43.5547Q91.7969-45.5566 89.6973-45.5566L85.3027-45.5566Q83.252-45.5566 82.7637-43.5547L81.3965-37.8906Q80.6152-37.5977 79.8584-37.3291Q79.1016-37.0605 78.4668-36.6699L73.4863-39.6973Q72.7539-40.1367 71.8994-40.0391Q71.0449-39.9414 70.3613-39.3066L67.2363-36.1816Q65.8203-34.8633 66.9434-33.0078L69.873-28.0273Q69.5801-27.4414 69.3115-26.7334Q69.043-26.0254 68.75-25.1953L63.1836-23.8281Q61.1328-23.3398 61.1328-21.2891L61.1328-16.8945Q61.1328-14.8926 63.1836-14.4043L68.8477-13.0371Q69.043-12.3535 69.3359-11.6455Q69.6289-10.9375 69.9707-10.2539L66.9434-5.37109Q66.4062-4.58984 66.5283-3.68652Q66.6504-2.7832 67.2852-2.09961L70.3613 1.07422Q71.0449 1.70898 71.9238 1.78223Q72.8027 1.85547 73.584 1.36719L78.5156-1.70898Q79.1504-1.31836 79.8828-1.02539Q80.6152-0.732422 81.3965-0.439453L82.7637 5.17578Q83.252 7.17773 85.3027 7.17773ZM87.5-11.5723Q84.375-11.5723 82.1289-13.8184Q79.8828-16.0645 79.8828-19.2383Q79.8828-22.3633 82.1289-24.585Q84.375-26.8066 87.5-26.8066Q90.6738-26.8066 92.9199-24.585Q95.166-22.3633 95.166-19.2383Q95.166-16.0645 92.9199-13.8184Q90.6738-11.5723 87.5-11.5723Z"/>
  </g>
  <g id="Ultralight-S" transform="matrix(1 0 0 1 503.265 696)">
   <path d="M32.6767-18.1839L38.0829-18.1839Q40.8806-18.1839 41.5085-20.8878L42.8024-26.3824Q43.2274-26.4977 43.6504-26.6804Q44.0735-26.8631 44.4427-27.0271L49.2928-24.0562Q50.489-23.3376 51.6052-23.5016Q52.7214-23.6656 53.6392-24.5827L57.4799-28.4271Q58.4846-29.3442 58.6067-30.4848Q58.7288-31.6254 57.9613-32.7805L55.0392-37.5328Q55.2025-37.9509 55.3856-38.393Q55.5687-38.8351 55.722-39.257L61.2206-40.5502Q63.9236-41.1781 63.9236-43.9758L63.9236-49.3301Q63.9236-52.0828 61.2206-52.7557L55.7289-54.0497Q55.5687-54.4807 55.3856-54.9004Q55.2025-55.32 55.0461-55.7312L57.9613-60.5392Q59.5032-62.9639 57.4867-64.8865L53.6392-68.6813Q52.7214-69.6404 51.6087-69.7887Q50.4959-69.9371 49.2996-69.2146L44.4427-66.2865Q44.0735-66.4497 43.652-66.61Q43.2304-66.7702 42.8024-66.9266L41.5085-72.4319Q41.2193-73.7755 40.3263-74.4556Q39.4333-75.1358 38.0829-75.1358L32.6767-75.1358Q29.882-75.1358 29.2511-72.4319L27.9579-66.9334Q27.533-66.7732 27.1099-66.613Q26.6869-66.4528 26.3138-66.2445L21.4607-69.2146Q20.2637-69.9371 19.1509-69.7887Q18.0382-69.6404 17.1204-68.6813L13.2736-64.8865Q11.2572-62.9639 12.7991-60.5392L15.7173-55.7312Q15.5571-55.32 15.3744-54.9004Q15.1917-54.4807 15.0314-54.0497L9.53979-52.7557Q6.83594-52.0828 6.83594-49.3301L6.83594-43.9758Q6.83594-41.1781 9.53979-40.5502L15.0383-39.257Q15.1917-38.8351 15.3744-38.393Q15.5571-37.9509 15.7204-37.5328L12.7991-32.7805Q12.0766-31.6254 12.1761-30.4848Q12.2757-29.3442 13.2805-28.4271L17.1204-24.5827Q18.0382-23.6656 19.1544-23.5016Q20.2705-23.3376 21.4676-24.0562L26.3176-27.0271Q26.6899-26.8631 27.1114-26.6804Q27.533-26.4977 27.9579-26.3824L29.2511-20.8878Q29.882-18.1839 32.6767-18.1839ZM35.3592-35.788Q30.8655-35.788 27.6752-38.9572Q24.485-42.1265 24.485-46.6614Q24.485-51.1551 27.6752-54.3434Q30.8655-57.5317 35.3592-57.5317Q39.8483-57.5317 43.0386-54.3434Q46.2288-51.1551 46.2288-46.6614Q46.2288-42.1265 43.0386-38.9572Q39.8483-35.788 35.3592-35.788ZM80.0354 4.72565L84.0668 4.72565Q86.7111 4.72565 87.1994 2.49634L88.1088-2.3468Q88.5269-2.5032 88.9416-2.65999Q89.3562-2.81677 89.7675-3.02582L93.8362-0.312805Q94.799 0.311279 95.7443 0.170135Q96.6896 0.0289917 97.6456-0.92392L100.449-3.73459Q102.281-5.61142 101.067-7.50504L98.3574-11.6165Q98.5176-11.982 98.6969-12.3722Q98.8762-12.7625 99.0265-13.1737L103.828-14.1769Q106.057-14.6164 106.057-17.2577L106.057-21.2891Q106.057-23.9304 103.828-24.3729L99.0295-25.3769Q98.6778-26.3138 98.3612-26.9379L101.067-31.0555Q102.281-32.9559 100.41-34.819L97.6456-37.6266Q95.7649-39.4928 93.8393-38.2439L89.7675-35.5316Q89.3593-35.733 88.9431-35.8932Q88.5269-36.0535 88.1088-36.2038L87.1994-41.0568Q86.7111-43.2861 84.0668-43.2861L80.0354-43.2861Q77.3941-43.2861 76.9516-41.0568L75.9926-36.2106Q75.5745-36.0535 75.1583-35.8986Q74.7421-35.7437 74.3797-35.5347L70.2621-38.2439Q69.3481-38.8649 68.4029-38.7218Q67.4576-38.5788 66.5016-37.6266L63.694-34.819Q61.824-32.9559 63.0836-31.0555L65.786-26.9379Q65.5838-26.5785 65.4289-26.1883Q65.274-25.798 65.1169-25.3769L60.3226-24.3729Q58.0902-23.9304 58.0902-21.2891L58.0902-17.2577Q58.0902-14.6202 60.3226-14.1769L65.1237-13.1737Q65.274-12.7625 65.4308-12.3722Q65.5876-11.982 65.7928-11.6165L63.0836-7.50504Q62.4557-6.54221 62.6232-5.59349Q62.7907-4.64478 63.6978-3.73459L66.5016-0.92392Q67.4576 0.0289917 68.4048 0.170135Q69.352 0.311279 70.269-0.312805L74.3835-3.02582Q74.7459-2.81677 75.1602-2.65999Q75.5745-2.5032 75.9926-2.3468L76.9516 2.49634Q77.3941 4.72565 80.0354 4.72565ZM82.0511-11.5265Q78.8803-11.5265 76.5888-13.8184Q74.2973-16.1102 74.2973-19.2841Q74.2973-22.4541 76.5888-24.744Q78.8803-27.034 82.0511-27.034Q85.2699-27.034 87.5389-24.744Q89.8079-22.4541 89.8079-19.2841Q89.8079-16.1102 87.5389-13.8184Q85.2699-11.5265 82.0511-11.5265Z"/>
  </g>
 </g>
</svg>
